<mxfile host="app.diagrams.net" modified="2023-06-11T05:50:47.932Z" agent="Mozilla/5.0 (Windows NT 10.0; Win64; x64) AppleWebKit/537.36 (KHTML, like Gecko) Chrome/114.0.0.0 Safari/537.36" etag="75V-pSIaA9gEs1GF84DD" version="21.3.7" type="github">
  <diagram name="Página-1" id="b2GBKhXSbdN4ZsOGRmR0">
    <mxGraphModel dx="1761" dy="477" grid="1" gridSize="10" guides="1" tooltips="1" connect="1" arrows="1" fold="1" page="1" pageScale="1" pageWidth="850" pageHeight="1100" math="0" shadow="0">
      <root>
        <mxCell id="0" />
        <mxCell id="1" parent="0" />
        <mxCell id="4I5N0-QppBxn1IQBgqWN-1" value="Post" style="rounded=1;whiteSpace=wrap;html=1;fillColor=#1ba1e2;fontColor=#ffffff;strokeColor=#006EAF;" parent="1" vertex="1">
          <mxGeometry x="85" y="160" width="60" height="30" as="geometry" />
        </mxCell>
        <mxCell id="4I5N0-QppBxn1IQBgqWN-2" value="Usuarios" style="rounded=1;whiteSpace=wrap;html=1;fillColor=#1ba1e2;fontColor=#ffffff;strokeColor=#006EAF;" parent="1" vertex="1">
          <mxGeometry x="-70" y="90" width="80" height="30" as="geometry" />
        </mxCell>
        <mxCell id="4I5N0-QppBxn1IQBgqWN-3" value="Comentarios" style="rounded=1;whiteSpace=wrap;html=1;fillColor=#1ba1e2;fontColor=#ffffff;strokeColor=#006EAF;" parent="1" vertex="1">
          <mxGeometry x="217" y="90" width="90" height="30" as="geometry" />
        </mxCell>
        <mxCell id="4I5N0-QppBxn1IQBgqWN-4" value="Categorías" style="rounded=1;whiteSpace=wrap;html=1;fillColor=#1ba1e2;fontColor=#ffffff;strokeColor=#006EAF;" parent="1" vertex="1">
          <mxGeometry x="-75" y="230" width="70" height="30" as="geometry" />
        </mxCell>
        <mxCell id="4I5N0-QppBxn1IQBgqWN-5" value="Etiquetas" style="rounded=1;whiteSpace=wrap;html=1;fillColor=#1ba1e2;fontColor=#ffffff;strokeColor=#006EAF;" parent="1" vertex="1">
          <mxGeometry x="227" y="230" width="70" height="30" as="geometry" />
        </mxCell>
        <mxCell id="4I5N0-QppBxn1IQBgqWN-7" value="escribe" style="rhombus;whiteSpace=wrap;html=1;fillColor=#0050ef;fontColor=#ffffff;strokeColor=#001DBC;" parent="1" vertex="1">
          <mxGeometry x="70" y="75" width="90" height="60" as="geometry" />
        </mxCell>
        <mxCell id="4I5N0-QppBxn1IQBgqWN-9" value="escribe" style="rhombus;whiteSpace=wrap;html=1;fillColor=#0050ef;fontColor=#ffffff;strokeColor=#001DBC;" parent="1" vertex="1">
          <mxGeometry x="-75" y="145" width="90" height="60" as="geometry" />
        </mxCell>
        <mxCell id="4I5N0-QppBxn1IQBgqWN-10" value="tiene" style="rhombus;whiteSpace=wrap;html=1;fillColor=#0050ef;fontColor=#ffffff;strokeColor=#001DBC;gradientColor=none;" parent="1" vertex="1">
          <mxGeometry x="217" y="145" width="90" height="60" as="geometry" />
        </mxCell>
        <mxCell id="4I5N0-QppBxn1IQBgqWN-11" value="1:N" style="text;html=1;strokeColor=none;fillColor=none;align=center;verticalAlign=middle;whiteSpace=wrap;rounded=0;" parent="1" vertex="1">
          <mxGeometry x="200" y="145" width="40" height="15" as="geometry" />
        </mxCell>
        <mxCell id="4I5N0-QppBxn1IQBgqWN-12" value="1:N" style="text;html=1;strokeColor=none;fillColor=none;align=center;verticalAlign=middle;whiteSpace=wrap;rounded=0;" parent="1" vertex="1">
          <mxGeometry x="95" y="58" width="40" height="15" as="geometry" />
        </mxCell>
        <mxCell id="4I5N0-QppBxn1IQBgqWN-13" value="1:N" style="text;html=1;strokeColor=none;fillColor=none;align=center;verticalAlign=middle;whiteSpace=wrap;rounded=0;" parent="1" vertex="1">
          <mxGeometry y="145" width="40" height="15" as="geometry" />
        </mxCell>
        <mxCell id="4I5N0-QppBxn1IQBgqWN-14" value="" style="endArrow=none;html=1;rounded=0;entryX=0.5;entryY=1;entryDx=0;entryDy=0;" parent="1" target="4I5N0-QppBxn1IQBgqWN-2" edge="1">
          <mxGeometry width="50" height="50" relative="1" as="geometry">
            <mxPoint x="-30" y="145" as="sourcePoint" />
            <mxPoint x="20" y="95" as="targetPoint" />
          </mxGeometry>
        </mxCell>
        <mxCell id="4I5N0-QppBxn1IQBgqWN-15" value="" style="endArrow=none;html=1;rounded=0;entryX=0;entryY=0.5;entryDx=0;entryDy=0;exitX=1;exitY=0.5;exitDx=0;exitDy=0;" parent="1" source="4I5N0-QppBxn1IQBgqWN-2" target="4I5N0-QppBxn1IQBgqWN-7" edge="1">
          <mxGeometry width="50" height="50" relative="1" as="geometry">
            <mxPoint x="10" y="107" as="sourcePoint" />
            <mxPoint x="71.8493150684933" y="105.23287671232873" as="targetPoint" />
          </mxGeometry>
        </mxCell>
        <mxCell id="4I5N0-QppBxn1IQBgqWN-16" value="" style="endArrow=none;html=1;rounded=0;entryX=0;entryY=0.5;entryDx=0;entryDy=0;" parent="1" edge="1">
          <mxGeometry width="50" height="50" relative="1" as="geometry">
            <mxPoint x="160" y="105" as="sourcePoint" />
            <mxPoint x="217" y="104" as="targetPoint" />
          </mxGeometry>
        </mxCell>
        <mxCell id="4I5N0-QppBxn1IQBgqWN-18" value="" style="endArrow=none;html=1;rounded=0;entryX=0.5;entryY=1;entryDx=0;entryDy=0;" parent="1" target="4I5N0-QppBxn1IQBgqWN-3" edge="1">
          <mxGeometry width="50" height="50" relative="1" as="geometry">
            <mxPoint x="262" y="145" as="sourcePoint" />
            <mxPoint x="312" y="95" as="targetPoint" />
          </mxGeometry>
        </mxCell>
        <mxCell id="4I5N0-QppBxn1IQBgqWN-19" value="" style="endArrow=none;html=1;rounded=0;entryX=0;entryY=0.5;entryDx=0;entryDy=0;" parent="1" target="4I5N0-QppBxn1IQBgqWN-1" edge="1">
          <mxGeometry width="50" height="50" relative="1" as="geometry">
            <mxPoint x="15" y="175" as="sourcePoint" />
            <mxPoint x="65" y="125" as="targetPoint" />
          </mxGeometry>
        </mxCell>
        <mxCell id="4I5N0-QppBxn1IQBgqWN-20" value="" style="endArrow=none;html=1;rounded=0;exitX=1;exitY=0.5;exitDx=0;exitDy=0;" parent="1" source="4I5N0-QppBxn1IQBgqWN-1" edge="1">
          <mxGeometry width="50" height="50" relative="1" as="geometry">
            <mxPoint x="167" y="225" as="sourcePoint" />
            <mxPoint x="217" y="175" as="targetPoint" />
          </mxGeometry>
        </mxCell>
        <mxCell id="4I5N0-QppBxn1IQBgqWN-21" value="tiene" style="rhombus;whiteSpace=wrap;html=1;fillColor=#0050ef;fontColor=#ffffff;strokeColor=#001DBC;gradientColor=none;" parent="1" vertex="1">
          <mxGeometry x="20" y="222.5" width="75" height="45" as="geometry" />
        </mxCell>
        <mxCell id="4I5N0-QppBxn1IQBgqWN-22" value="" style="endArrow=none;html=1;rounded=0;entryX=0;entryY=0.5;entryDx=0;entryDy=0;" parent="1" edge="1">
          <mxGeometry width="50" height="50" relative="1" as="geometry">
            <mxPoint x="-5" y="246" as="sourcePoint" />
            <mxPoint x="20.999999999999773" y="246" as="targetPoint" />
          </mxGeometry>
        </mxCell>
        <mxCell id="4I5N0-QppBxn1IQBgqWN-24" value="" style="endArrow=none;html=1;rounded=0;entryX=0.344;entryY=1.039;entryDx=0;entryDy=0;entryPerimeter=0;" parent="1" edge="1">
          <mxGeometry width="50" height="50" relative="1" as="geometry">
            <mxPoint x="95" y="245" as="sourcePoint" />
            <mxPoint x="95.63999999999987" y="191.17000000000002" as="targetPoint" />
          </mxGeometry>
        </mxCell>
        <mxCell id="4I5N0-QppBxn1IQBgqWN-25" value="tiene" style="rhombus;whiteSpace=wrap;html=1;fillColor=#0050ef;fontColor=#ffffff;strokeColor=#001DBC;gradientColor=none;" parent="1" vertex="1">
          <mxGeometry x="120" y="222.5" width="75" height="45" as="geometry" />
        </mxCell>
        <mxCell id="4I5N0-QppBxn1IQBgqWN-26" value="" style="endArrow=none;html=1;rounded=0;exitX=0;exitY=0.5;exitDx=0;exitDy=0;" parent="1" source="4I5N0-QppBxn1IQBgqWN-25" edge="1">
          <mxGeometry width="50" height="50" relative="1" as="geometry">
            <mxPoint x="85" y="240" as="sourcePoint" />
            <mxPoint x="120" y="190" as="targetPoint" />
          </mxGeometry>
        </mxCell>
        <mxCell id="4I5N0-QppBxn1IQBgqWN-27" value="" style="endArrow=none;html=1;rounded=0;entryX=0;entryY=0.5;entryDx=0;entryDy=0;" parent="1" target="4I5N0-QppBxn1IQBgqWN-5" edge="1">
          <mxGeometry width="50" height="50" relative="1" as="geometry">
            <mxPoint x="194" y="245" as="sourcePoint" />
            <mxPoint x="244" y="195" as="targetPoint" />
          </mxGeometry>
        </mxCell>
        <mxCell id="4I5N0-QppBxn1IQBgqWN-28" value="1:N" style="text;html=1;strokeColor=none;fillColor=none;align=center;verticalAlign=middle;whiteSpace=wrap;rounded=0;" parent="1" vertex="1">
          <mxGeometry x="37.5" y="205" width="40" height="15" as="geometry" />
        </mxCell>
        <mxCell id="4I5N0-QppBxn1IQBgqWN-29" value="N:N" style="text;html=1;strokeColor=none;fillColor=none;align=center;verticalAlign=middle;whiteSpace=wrap;rounded=0;" parent="1" vertex="1">
          <mxGeometry x="137" y="207.5" width="40" height="15" as="geometry" />
        </mxCell>
        <mxCell id="wf-pJBug-1P9c5IFpErA-1" value="Diagrama físico" style="text;html=1;strokeColor=none;fillColor=none;align=center;verticalAlign=middle;whiteSpace=wrap;rounded=0;fontFamily=Verdana;fontStyle=1;fontSize=22;labelBackgroundColor=none;labelBorderColor=none;horizontal=1;spacing=-1;" parent="1" vertex="1">
          <mxGeometry x="-85" y="340" width="210" height="30" as="geometry" />
        </mxCell>
        <mxCell id="SPCix7Z1RvZTZOEZ342P-1" value="&lt;u style=&quot;font-style: italic; font-weight: bold;&quot;&gt;usuarios&lt;/u&gt;&lt;br&gt;id:INTEGER(PK)&lt;br&gt;login:Varchar (30)" style="rounded=1;whiteSpace=wrap;html=1;align=left;" vertex="1" parent="1">
          <mxGeometry x="-75" y="390" width="120" height="60" as="geometry" />
        </mxCell>
      </root>
    </mxGraphModel>
  </diagram>
</mxfile>
